<svg width="149" height="203" viewBox="0 0 149 203" fill="none" xmlns="http://www.w3.org/2000/svg">
<path d="M48.5939 40.7905C48.2159 37.3887 44.4899 32.5324 48.5939 30.3597C50.1371 29.5427 53.7155 26.4465 54.568 24.9546C59.6121 16.1274 68.7454 16.041 77.6106 16.041C89.3731 16.041 104.608 22.1346 110.468 32.6829C112.015 35.4687 112.278 39.3472 111.558 42.4974C110.895 45.3999 108.824 52.2429 106.153 53.9713C100.839 57.4096 96.1051 62.9154 90.2224 64.8763C85.9568 66.2981 82.2174 68.6562 77.6106 66.5831C73.7672 64.8536 68.9649 65.0799 65.2833 63.4065C61.5739 61.7204 58.0195 61.3581 54.568 59.1393C51.9803 57.4758 43.6218 54.703 43.4733 50.8421C43.3861 48.574 43.4733 46.2839 43.4733 44.0146C43.4733 40.8617 44.7162 40.8176 45.9862 38.2777C48.3226 33.605 53.7237 32.247 57.1282 28.8425" stroke="black" stroke-width="3" stroke-linecap="round"/>
<path d="M67.3701 64.687C68.9722 69.3154 72.1793 71.9527 75.051 75.7816" stroke="black" stroke-width="3" stroke-linecap="round"/>
<path d="M84.4385 66.3936C85.6306 68.5611 87.8522 70.6478 87.8522 73.221" stroke="black" stroke-width="3" stroke-linecap="round"/>
<path d="M68.2236 79.1953H69.0771" stroke="black" stroke-width="3" stroke-linecap="round"/>
<path d="M76.7573 79.1954C73.905 79.1954 69.7817 78.4367 67.3695 80.1911C61.8369 84.2148 58.0061 90.3429 55.8008 96.7382C54.2593 101.209 57.1283 106.669 57.1283 111.199C57.1283 117.6 57.1283 124.001 57.1283 130.401" stroke="black" stroke-width="3" stroke-linecap="round"/>
<path d="M57.1289 131.254V138.935" stroke="black" stroke-width="3" stroke-linecap="round"/>
<path d="M57.1286 139.789C44.0765 139.789 33.9479 152.541 29.3446 163.97C25.8373 172.678 23.3837 182.052 22.9913 191.469C22.8348 195.225 23.5714 190.518 23.8447 189.288" stroke="black" stroke-width="3" stroke-linecap="round"/>
<path d="M87.8525 74.928C93.4577 74.928 100.373 74.0528 105.538 76.6349C110.737 79.2346 107.639 88.2931 107.055 92.7078C105.761 102.485 104.921 112.02 104.921 121.867C104.921 128.197 105.775 133.707 105.775 139.789" stroke="black" stroke-width="3" stroke-linecap="round"/>
<path d="M56.2754 139.789C70.4627 137.129 83.5528 134.668 97.9987 134.668C102.013 134.668 106.027 134.668 110.042 134.668" stroke="black" stroke-width="3" stroke-linecap="round"/>
<path d="M104.921 140.642C91.1007 140.642 80.3167 146.64 71.1628 157.047C64.3266 164.819 63.9561 174.476 63.9561 184.167" stroke="black" stroke-width="3" stroke-linecap="round"/>
<path d="M57.1291 143.203C51.4489 143.203 45.7298 151.743 44.138 156.573C41.2214 165.423 38.8524 173.636 34.7502 181.986C33.9282 183.66 32.6259 192.376 30.6727 192.702C26.9841 193.316 22.6774 190.838 19.5781 189.288" stroke="black" stroke-width="3" stroke-linecap="round"/>
<path d="M104.921 143.203C98.6396 145.297 94.4805 153.169 89.9388 157.711C85.9854 161.664 80.9694 164.466 76.6632 168.047C69.5451 173.966 69.0771 176.505 69.0771 185.021" stroke="black" stroke-width="3" stroke-linecap="round"/>
<path d="M60.542 187.581H70.7832" stroke="black" stroke-width="3" stroke-linecap="round"/>
<path d="M62.2489 185.874C61.0888 187.325 57.8629 196.927 59.0249 198.96C59.4337 199.676 68.8783 197.985 70.0247 197.633C72.0322 197.015 70.7833 185.614 70.7833 184.167" stroke="black" stroke-width="3" stroke-linecap="round"/>
<path d="M23.8445 190.995C22.9047 198.63 21.8226 202.586 30.9091 201.188C33.2532 200.828 32.3789 191.63 32.3789 190.141" stroke="black" stroke-width="3" stroke-linecap="round"/>
<path d="M108.335 78.3418C113.645 83.8175 115.691 91.5989 120.662 97.0225C124.401 101.101 126.909 106.07 129.339 111.199C130.484 113.617 145.32 127.27 139.059 130.401" stroke="black" stroke-width="3" stroke-linecap="round"/>
<path d="M108.335 100.531C108.737 104.549 111.556 110.7 114.309 113.712C115.658 115.187 116.295 117.025 117.723 118.453C118.991 119.721 121.25 120.629 121.99 122.293C123.166 124.941 128.817 125.716 128.817 128.694" stroke="black" stroke-width="3" stroke-linecap="round"/>
<path d="M129.67 127.841C127.541 128.077 125.375 129.204 123.222 129.595C118.582 130.439 121.148 132.79 122.036 135.901C122.849 138.745 127.014 135.699 124.17 140.168C122.266 143.16 127.118 144.539 128.295 141.401C130.427 135.715 129.249 144.701 132.23 146.427C137.15 149.275 135.559 136.03 140.101 141.97C143.971 147.032 147.773 140.784 146.549 136.375C145.601 132.963 142.461 128.975 139.058 127.841" stroke="black" stroke-width="3" stroke-linecap="round"/>
<path d="M57.9824 86.876C53.7937 94.6088 47.236 100.393 40.0603 105.272C35.227 108.559 32.1133 114.421 27.3062 118.026C25.1639 119.633 23.1185 122.431 21.2848 124.427C18.6708 127.272 20.2676 128.996 20.4314 132.108C20.5587 134.527 20.3229 138.169 18.2978 139.789C15.9166 141.694 22.3957 146.714 25.552 144.008C29.7092 140.445 34.375 135.809 35.9828 130.401C38.0307 123.513 41.705 118.093 46.5085 112.906C49.1694 110.032 51.9936 106.757 55.4221 104.798C57.0893 103.845 58.8358 102.507 58.8358 100.531" stroke="black" stroke-width="3" stroke-linecap="round"/>
<path d="M17.8713 132.961C16.5345 140.983 8.19323 139.201 2.98367 140.69C0.597678 141.371 3.85524 148.404 5.06983 149.177C6.01384 149.777 6.84303 150.977 8.00943 150.694C10.2526 150.15 10.5377 148.591 9.52664 150.789C6.58591 157.182 10.8792 157.92 16.2593 157.664C23.0287 157.341 24.4228 155.805 26.8323 150.504C27.9888 147.96 29.8762 140.946 26.4056 139.789" stroke="black" stroke-width="3" stroke-linecap="round"/>
<path d="M59.6893 39.9372C60.0622 43.2927 60.0157 38.9421 59.0256 41.17C58.1088 43.2326 61.9148 46.5517 63.4824 44.5363C65.3457 42.1406 58.3598 38.355 57.7928 40.1269C56.3453 44.6502 65.5685 43.9705 65.5685 42.0708C65.5685 40.6312 61.9714 40.1349 61.5384 41.2174C60.8488 42.9414 68.4668 39.7291 64.8099 39.0838C63.6218 38.8741 60.9398 38.4646 61.3488 37.8511C61.8223 37.1408 61.3695 39.5582 61.3962 40.4114C61.4351 41.6551 62.1982 41.0923 63.1031 40.7907" stroke="black" stroke-width="3" stroke-linecap="round"/>
<path d="M98.093 37.3772C94.6477 37.1858 93.2744 35.4536 92.3086 39.5582C91.6795 42.2321 94.9144 42.4741 94.6319 39.084C94.3691 35.9307 88.4491 34.1217 86.6665 37.0927C84.3072 41.0249 90.7949 44.0103 93.1621 40.7909C95.5579 37.5326 91.9405 34.6742 89.938 37.5668C87.2481 41.4523 93.064 43.0596 94.537 39.1314C96.1785 34.7542 91.4835 41.1419 91.7397 40.8857C93.7486 38.8768 87.1688 35.4992 89.5587 39.084" stroke="black" stroke-width="3" stroke-linecap="round"/>
<path d="M70.7832 52.7389C70.7832 47.8733 83.1203 46.2063 84.3907 50.6527C84.6155 51.4395 85.3726 53.1676 85.2915 51.2217C85.1973 48.9595 82.854 48.2923 81.0244 47.808C78.3337 47.0957 72.3499 45.3383 70.7832 48.4717" stroke="black" stroke-width="3" stroke-linecap="round"/>
<path d="M69.0771 14.3345C59.1573 15.2792 53.6821 22.4411 47.6465 29.3644C43.291 34.3603 40.3318 37.3651 39.3966 44.0149C39.0621 46.3938 39.207 54.2662 39.207 47.6183" stroke="black" stroke-width="3" stroke-linecap="round"/>
<path d="M73.344 16.0413C64.456 7.50878 52.6824 12.4048 46.8877 22.0628C42.6773 29.08 36.7709 37.0923 30.8621 42.7822C29.1847 44.3975 31.5193 33.4739 31.9052 32.3514C33.6351 27.3189 36.2389 24.9397 40.8662 22.3947C47.0404 18.9989 54.5127 17.5436 61.396 16.4681C64.7761 15.9399 68.4204 15.7768 71.8268 16.231C77.424 16.9773 78.2329 16.6275 72.6803 13.481C67.5526 10.5753 60.6784 11.7742 54.9478 11.7742C47.6864 11.7742 38.1869 15.6167 33.0431 20.8775C29.8023 24.192 24.4095 29.7954 23.1812 34.2479C22.4613 36.8576 22.9916 40.2984 22.9916 42.9719C22.9916 48.6477 22.7809 46.4951 23.0864 41.4546C23.4013 36.259 24.1 28.0848 28.207 24.1489C38.6262 14.1639 54.5701 14.3345 68.0338 14.3345C69.9013 14.3345 76.256 13.2829 77.5638 14.8086C78.3181 15.6886 80.9063 16.3139 80.8827 16.2784C78.873 13.2639 76.9673 10.6554 74.3871 8.17081C73.4708 7.28837 72.9892 6.72794 71.7794 6.27429C69.4488 5.40031 76.2585 8.45419 78.5595 9.40354C84.0952 11.6875 90.1111 13.2116 95.154 16.4206C95.7301 16.7873 97.7389 17.1604 95.6281 16.7051C91.3799 15.7889 87.548 13.5199 83.5852 11.8216C80.1051 10.3301 76.5621 8.99137 73.0596 7.55444C69.6596 6.15957 69.417 6.16784 72.9647 8.26563C83.218 14.3284 96.7773 20.8842 108.999 21.1619C110.26 21.1906 106.691 20.1254 105.49 19.7395C98.4746 17.4864 91.5591 14.8905 84.818 11.9164C81.1824 10.3125 72.0929 5.96539 80.9775 11.5371C92.1661 18.5537 101.523 22.2339 107.007 34.7694C108.462 38.0938 103.074 28.5268 102.55 27.136C101.343 23.9311 102.269 24.33 104.257 26.567C107.486 30.1989 110.307 34.1906 113.266 38.0409C115.103 40.4325 118.563 49.0104 120.994 50.226C121.515 50.4867 120.752 49.0855 120.615 48.5192C119.965 45.8481 119.238 43.2164 118.386 40.6012C117.233 37.0595 116.289 33.06 114.356 29.8385C111.844 25.6517 117.873 40.2186 118.386 41.265C120.553 45.6835 123.085 50.0246 124.834 54.6354C125.778 57.1222 125.43 55.961 125.403 53.8768C125.193 37.4307 114.913 28.4041 101.128 21.3516C99.1599 20.3447 91.1997 15.0938 96.766 19.4077C101.562 23.1244 106.085 27.0328 111.18 30.36C111.826 30.7822 116.495 34.6726 115.352 31.4505C112.462 23.3058 105.205 15.6587 98.4729 10.4466C94.4018 7.29485 89.402 6.10142 84.5809 4.56743C84.3749 4.50189 75.8912 1.47114 78.1802 3.80882C86.7702 12.5816 98.5117 18.9909 109.236 24.7653C111.39 25.9256 106.004 21.0464 104.068 19.5499C97.4697 14.4516 89.8679 10.934 81.9258 8.5027C74.0156 6.08121 64.8173 4.35014 56.4651 4.94673C47.7775 5.56727 73.4202 9.42344 82.1154 9.92508C85.8885 10.1428 94.7377 9.90885 87.2834 5.89499C79.9754 1.95989 68.5785 1.48595 60.3529 2.57609C55.5165 3.21706 44.7299 6.59376 42.5257 11.6319C41.5102 13.953 62.2799 6.10212 57.2711 6.74842C47.0568 8.0664 35.793 18.7042 35.793 29.6963C35.793 32.3614 37.1428 24.0286 37.5473 22.9162C37.7905 22.2474 40.4689 16.479 38.3533 20.024C35.1901 25.3246 31.5718 30.2961 28.3018 35.528C25.9639 39.2688 23.665 43.1696 22.7071 47.5235C22.1314 50.1405 21.293 54.2615 23.9398 49.8941C28.1862 42.8877 32.55 35.8639 37.0258 29.0325C39.638 25.0454 36.4682 40.6286 36.2198 42.0236C36.0921 42.7407 33.3813 62.325 36.5042 59.9457C43.7051 54.4593 49.6692 30.5434 35.793 41.6443" stroke="black" stroke-width="3" stroke-linecap="round"/>
<path d="M63.9565 136.375C60.4713 136.375 59.1157 138.725 56.0859 139.978C53.7235 140.956 53.6446 142.854 51.3447 143.866C49.6057 144.631 50.3016 147.692 50.3016 143.392C50.3016 141.21 51.8003 140.427 53.7153 139.789" stroke="black" stroke-width="3" stroke-linecap="round"/>
<path d="M60.5427 86.0225C58.7834 103.616 57.9824 121.155 57.9824 138.935" stroke="black" stroke-width="3" stroke-linecap="round"/>
<path d="M54.5688 103.091C51.4161 107.214 45.9949 110.979 43.5216 115.513C41.7962 118.677 36.4923 124.011 33.0433 125.47C26.9556 128.046 26.2108 142.734 20.8108 142.302C14.9366 141.832 9.55941 132.731 13.1299 127.177C15.5066 123.48 20.4355 121.253 24.3194 119.686C27.9144 118.235 31.3457 115.21 34.8924 113.332C47.5387 106.637 58.0003 91.9257 61.3962 78.3418" stroke="black" stroke-width="3" stroke-linecap="round"/>
<path d="M108.335 74.9282C115.146 91.1986 122.925 107.674 132.041 122.531C134.012 125.743 147.715 141.465 140.765 143.203" stroke="black" stroke-width="3" stroke-linecap="round"/>
</svg>
